<svg width="30" height="29" viewBox="0 0 30 29" fill="none" xmlns="http://www.w3.org/2000/svg">
<path d="M29.8299 15.4678L28.4542 14.4394V0L15.5046 0.629127L2.55504 0.000986093V3.68601L0.538958 2.87939L0.520327 2.8715L0.500716 2.86657C0.47522 2.85967 0.435997 2.85178 0.394813 2.85178H0.385987H0.376182C0.270279 2.85671 0.17222 2.90404 0.101618 2.98293C0.0310165 3.06182 -0.00526509 3.16339 0.000618405 3.2689C0.00846306 3.40301 0.0810262 3.52331 0.195754 3.59135L2.38638 4.95314L2.55504 5.05767V14.533C2.57367 18.6036 5.62818 22.051 8.64053 24.5488C11.6058 26.9933 14.6064 28.5355 14.9839 28.7259L15.2673 28.8708L15.4183 28.9467L15.5242 29L16.0243 28.7249C16.2744 28.5996 19.3397 27.0446 22.3677 24.5478C25.1084 22.2768 27.8678 19.216 28.361 15.6197L29.4357 16.1522L29.4632 16.166L29.4926 16.1739C29.5318 16.1847 29.5701 16.1897 29.6054 16.1897C29.7221 16.1867 29.8211 16.1423 29.8937 16.0634C29.9662 15.9855 30.0045 15.884 29.9996 15.7775C29.9947 15.6522 29.9319 15.5379 29.8299 15.4678ZM3.01003 0.481213L15.5046 1.08667H15.5164L28.0002 0.480227V14.0992L27.5726 13.7797L27.3853 13.6396L27.3903 13.186V1.05512L15.5105 1.63691L3.63172 1.05512V4.11595L3.01003 3.86746V0.481213ZM22.9129 4.17807V3.61699H24.9604L23.769 6.45299H23.108L24.0876 4.17807H22.9129ZM14.8211 10.1597C15.1232 10.282 15.285 10.5896 15.285 10.5896L16.0292 11.9583L18.4503 13.5667C18.2355 13.9581 18.1581 14.2678 18.1188 14.391C18.1012 14.4502 18.0943 14.4788 18.0943 14.4808L18.4415 16.3228C18.4238 16.3287 18.4071 16.3307 18.3895 16.3366C17.9718 16.4766 17.5903 16.6945 17.1863 16.9253L16.9863 17.0387L16.9706 17.0476C16.899 17.088 16.8284 17.1284 16.7558 17.1669L16.749 17.1708L16.7421 17.1748C16.648 17.23 16.5499 17.2754 16.4303 17.3187C16.2508 17.3838 16.0704 17.4183 15.9076 17.4183C15.6919 17.4183 15.5193 17.371 15.4056 17.3395C15.3693 17.3296 15.3379 17.3207 15.3134 17.3148L15.3056 17.3128L15.2977 17.3109C15.0055 17.2566 14.5672 16.878 14.2151 16.5742C13.9788 16.3711 13.7562 16.1778 13.5415 16.0408C13.4542 15.9846 13.3463 15.9274 13.2032 15.8623L13.1747 15.8485C13.1669 15.8445 13.1581 15.8406 13.1502 15.8376L13.7101 13.8625C13.7082 13.8605 13.7062 13.8576 13.7052 13.8556L11.4862 10.2179C11.4303 10.1449 11.4391 10.0424 11.5019 9.98024L13.0159 7.1472C13.0404 7.10874 13.0777 7.0831 13.1189 7.07226C13.1326 7.06831 13.1463 7.06634 13.161 7.06634C13.163 7.06634 13.1649 7.06634 13.1669 7.06634C13.1993 7.06634 13.2326 7.07522 13.261 7.09395L14.7192 7.71223C14.7211 7.71322 14.7231 7.7142 14.7231 7.71519L16.3626 8.45377C16.4519 8.49026 16.4921 8.59577 16.4548 8.68846L15.7753 9.78007C15.7468 9.84909 15.6821 9.8915 15.6144 9.89347C15.6135 9.89347 15.6115 9.89347 15.6105 9.89347C15.5889 9.89347 15.5664 9.88952 15.5458 9.88065L13.9926 9.25448L13.7582 9.64201C13.7552 9.643 13.9994 9.73964 14.8211 10.1597ZM22.8521 18.8206C22.8874 18.8206 22.9257 18.8166 22.9639 18.8127C23.0031 18.8087 23.0423 18.8048 23.0796 18.8048C23.1688 18.8048 23.2483 18.8275 23.2826 18.9261C23.3542 19.1282 23.109 19.36 23.0571 19.5424C23.0355 19.6173 23.0463 19.7179 23.0198 19.7958C22.909 20.1104 22.6599 20.3835 22.4991 20.6724C22.4609 20.6705 22.4079 20.6537 22.3736 20.634C22.2059 20.5423 22.7531 19.9013 22.7972 19.8244C22.9021 19.6449 21.8872 19.6449 21.8284 19.6154C21.6166 19.5108 21.4587 19.2377 21.3773 19.0247C21.294 18.8058 21.2243 18.4025 21.5068 18.3009C21.545 18.2871 21.5842 18.2831 21.6225 18.2831C21.6499 18.2831 21.6774 18.2851 21.7048 18.2871C21.7313 18.2891 21.7597 18.291 21.7862 18.291C21.8254 18.291 21.8647 18.2871 21.9029 18.2733C22.0059 18.2348 22.0951 18.1145 22.1618 18.0386C21.8637 17.798 21.5852 17.7112 21.3106 17.7112C20.838 17.7112 20.3761 17.9696 19.8447 18.1559C19.4838 18.225 19.1494 18.2792 19.0004 18.3098C18.365 18.4399 17.7315 18.9882 17.2295 19.1558C17.2295 19.1558 16.5882 19.3984 15.9263 19.3984C15.8615 19.3984 15.7968 19.3964 15.7331 19.3915C15.0084 19.3343 14.5358 19.3294 13.4493 18.4074C12.8845 17.9577 12.7394 17.6343 11.2685 17.3237C10.6184 17.1925 10.0251 17.0397 10.0604 16.6748C10.0702 16.4451 10.4576 16.2271 10.3566 15.9964C10.3036 15.8751 10.2516 15.5832 10.3399 15.3929C10.1536 15.0379 9.98295 14.96 9.47893 14.8022C9.20829 14.7174 8.96608 14.7145 8.93471 14.7145C8.93275 14.7145 8.93078 14.7145 8.93078 14.7145L8.91607 14.7174C8.93569 14.819 8.94059 14.9255 8.92294 15.0271C8.85136 15.4126 8.72388 15.8278 8.36205 15.8278C8.33459 15.8278 8.30713 15.8258 8.27772 15.8209C8.25712 15.7647 8.48462 15.5014 8.12082 15.0714C7.90215 14.818 7.45893 14.0932 7.93843 13.7481C7.97079 13.7254 8.01198 13.6988 8.06297 13.6741C8.06885 13.6702 8.07473 13.6672 8.08062 13.6643C8.20123 13.6061 8.37087 13.5519 8.59542 13.5519C8.85332 13.5519 9.18279 13.6239 9.5917 13.8398C9.69662 13.9305 10.4036 14.0321 10.891 14.1159C10.9812 14.1307 11.0645 14.1465 11.1351 14.1613C11.6656 14.2668 12.0706 14.7618 11.698 15.1336C11.4558 15.3337 11.0685 15.6089 11.2567 15.6966C11.2626 15.6986 11.2695 15.7016 11.2773 15.7055C11.2959 15.7075 11.3244 15.7134 11.3607 15.7203C11.3813 15.7252 11.4019 15.7292 11.4215 15.7341C11.5735 15.7696 11.7235 15.8041 11.8676 15.8406C11.8804 15.8445 11.8921 15.8475 11.9039 15.8495C11.9284 15.8564 11.9529 15.8623 11.9775 15.8692C12.2638 15.9471 12.5913 16.0467 12.8737 16.1601C12.8953 16.168 12.9169 16.1768 12.9374 16.1867C12.9718 16.2015 13.0022 16.2163 13.0345 16.2311C13.1404 16.2794 13.2404 16.3287 13.3209 16.381C13.868 16.734 14.6093 17.5939 15.2202 17.7083C15.3261 17.7329 15.5703 17.8217 15.9047 17.8217C16.0969 17.8217 16.3205 17.7871 16.5636 17.6984C16.6862 17.654 16.8107 17.6008 16.9431 17.5229C17.0245 17.4795 17.103 17.4351 17.1824 17.3907C17.6423 17.1304 18.0688 16.8691 18.515 16.7192C18.718 16.6512 18.9249 16.6048 19.1416 16.5959C19.1485 16.5959 19.1553 16.595 19.1622 16.595C19.475 16.5595 19.776 16.5417 19.8702 16.5111C20.3379 16.3632 20.8164 16.1926 21.3048 16.1926C21.4793 16.1926 21.6558 16.2143 21.8323 16.2676C22.2147 16.381 22.5177 16.6433 22.7511 16.9598C22.8482 17.091 23.3267 17.7654 23.1963 17.9331C23.0512 18.1224 22.7335 18.3236 22.6942 18.576C22.6638 18.7811 22.7423 18.8206 22.8521 18.8206ZM17.6011 22.5598C17.6609 22.5618 17.6384 22.6427 17.6805 22.6239C17.7207 22.6042 17.755 22.5983 17.7796 22.6653C17.8109 22.7531 17.6982 22.7176 17.7276 22.7551C17.7658 22.8054 17.6354 22.9858 17.554 23.0253C17.4726 23.0627 17.4756 22.9622 17.4158 22.9612C17.354 22.9592 17.3736 22.9996 17.3452 22.9483C17.3167 22.8981 17.3373 22.8576 17.3687 22.829C17.4001 22.7994 17.3638 22.7472 17.3638 22.7472L17.2147 22.2758L15.9665 23.2955L17.2216 24.4157C17.2216 24.4157 17.4266 24.8476 17.3246 24.8426C17.0735 24.8338 16.9039 24.7973 16.9039 24.7973L15.5164 23.6633L14.1289 24.7973C14.1289 24.7973 13.9592 24.8338 13.7082 24.8426C13.6052 24.8466 13.8111 24.4157 13.8111 24.4157L15.0663 23.2955L13.818 22.2758L13.669 22.7472C13.669 22.7472 13.6327 22.7994 13.6641 22.829C13.6954 22.8586 13.716 22.8981 13.6876 22.9483C13.6592 22.9996 13.6788 22.9592 13.617 22.9612C13.5572 22.9622 13.5601 23.0627 13.4787 23.0253C13.3973 22.9868 13.2669 22.8054 13.3052 22.7551C13.3346 22.7176 13.2218 22.7541 13.2522 22.6653C13.2767 22.5983 13.3101 22.6042 13.3513 22.6239C13.3934 22.6427 13.3699 22.5628 13.4307 22.5598C13.5179 22.5579 13.5542 21.9021 13.5542 21.9021L12.7835 21.2178L12.6697 21.0827C12.6697 21.0827 12.5491 21.1063 12.4668 21.0284C12.3834 20.9505 12.3589 20.7326 12.4413 20.633C12.5187 20.5403 12.6845 20.5226 12.8276 20.6616C12.909 20.7395 12.8933 20.8273 12.8933 20.8273L13.0326 20.9456L13.8474 21.5688C13.8474 21.5688 14.4946 21.3479 14.4887 21.2878C14.4828 21.2276 14.5652 21.2404 14.5417 21.202C14.5172 21.1645 14.5064 21.13 14.5721 21.0984C14.6554 21.057 14.6329 21.1734 14.6672 21.1399C14.7123 21.0955 14.9114 21.199 14.9594 21.2749C15.0065 21.3509 14.9055 21.3598 14.9114 21.4209C14.9172 21.4801 14.9555 21.4574 14.9084 21.4909C14.8613 21.5264 14.8182 21.5087 14.7858 21.481C14.7398 21.4446 14.7652 21.4258 14.7652 21.4258L14.2573 21.768L15.5154 22.8912L16.7735 21.768L16.2655 21.4258C16.2655 21.4258 16.291 21.4446 16.2449 21.481C16.2126 21.5087 16.1694 21.5254 16.1224 21.4909C16.0753 21.4574 16.1136 21.4801 16.1194 21.4209C16.1253 21.3598 16.0243 21.3509 16.0714 21.2749C16.1204 21.199 16.3185 21.0955 16.3636 21.1399C16.3969 21.1734 16.3754 21.056 16.4587 21.0984C16.5244 21.13 16.5146 21.1645 16.4891 21.202C16.4656 21.2404 16.5479 21.2276 16.5421 21.2878C16.5372 21.3479 17.1834 21.5688 17.1834 21.5688L17.9982 20.9456L18.1375 20.8273C18.1375 20.8273 18.1208 20.7395 18.2022 20.6616C18.3454 20.5226 18.5111 20.5403 18.5885 20.633C18.6709 20.7326 18.6464 20.9505 18.563 21.0284C18.4807 21.1063 18.3601 21.0827 18.3601 21.0827L18.2463 21.2178L17.4756 21.9021C17.4785 21.9011 17.5148 22.5579 17.6011 22.5598ZM15.9714 6.09898L15.1114 7.53473L14.9006 7.44401L14.8515 7.42232L14.6309 7.32864L13.516 6.8494L14.4809 5.21544C14.5142 5.16022 14.5711 5.12965 14.6309 5.12867C14.6329 5.12867 14.6348 5.12867 14.6368 5.12867C14.6662 5.12867 14.6966 5.13656 14.7241 5.15233L15.9076 5.8564C15.992 5.90571 16.0204 6.01517 15.9714 6.09898ZM16.2822 6.29817C16.3146 6.24492 16.3705 6.21534 16.4293 6.21337C16.4313 6.21337 16.4332 6.21337 16.4352 6.21337C16.4666 6.21337 16.4979 6.22126 16.5264 6.23901L17.608 6.88293C17.6923 6.93322 17.7178 7.04366 17.6668 7.12649L17.6158 7.20932C17.6129 7.21425 17.608 7.21721 17.605 7.22313L17.1922 7.8917L16.8058 8.51491C16.8009 8.49815 16.7951 8.48138 16.7892 8.46561C16.7509 8.36995 16.6852 8.28909 16.6009 8.23289C16.5646 8.2033 16.5254 8.17668 16.4793 8.15795L15.432 7.68561L16.2822 6.29817ZM16.242 10.0335L16.8009 9.14108L17.8776 7.39372C17.911 7.33949 17.9688 7.3099 18.0296 7.3099C18.0306 7.3099 18.0316 7.3099 18.0326 7.3099C18.0629 7.3099 18.0943 7.31878 18.1228 7.33653L19.0955 7.91241C19.1779 7.96368 19.2034 8.07314 19.1524 8.15597L18.1855 9.70611L18.058 9.91418L17.5295 10.7622C17.5217 10.776 17.5158 10.7898 17.5089 10.8036C17.4746 10.8519 17.4216 10.8805 17.3658 10.8805C17.3658 10.8805 17.3648 10.8805 17.3638 10.8805C17.3324 10.8805 17.3001 10.8717 17.2706 10.8539L16.2989 10.2771C16.2165 10.2268 16.19 10.1173 16.242 10.0335ZM17.8011 10.9338L19.3122 8.51097C19.3475 8.45772 19.4054 8.42715 19.4632 8.42715C19.4642 8.42715 19.4642 8.42715 19.4652 8.42715C19.4975 8.42715 19.5299 8.43504 19.5583 8.45279L20.3291 8.91526C20.4134 8.96654 20.4389 9.076 20.3879 9.15883L18.8749 11.5817C18.8415 11.6349 18.7827 11.6655 18.7239 11.6655C18.7229 11.6655 18.7219 11.6655 18.7209 11.6655C18.6905 11.6655 18.6582 11.6576 18.6307 11.6398L17.858 11.1764C17.7747 11.1271 17.7492 11.0176 17.8011 10.9338ZM0.358531 3.31426C0.336958 3.30144 0.32323 3.27974 0.321269 3.25411C0.319308 3.21368 0.350686 3.17818 0.392851 3.1762C0.393832 3.1762 0.393832 3.1762 0.394813 3.1762C0.404618 3.1762 0.421288 3.18015 0.421288 3.18015L3.6327 4.46404L9.02982 6.62161L8.86803 3.59924L13.2297 6.70444C13.2297 6.70444 13.1796 6.68374 13.1051 6.68374C13.0698 6.68374 13.0286 6.68867 12.9855 6.70149C12.8502 6.7429 12.8188 6.83066 12.8188 6.83066L12.7462 6.97069C12.7443 6.97266 12.7423 6.97365 12.7413 6.97562L12.7354 6.98548L12.7305 6.99534L11.9333 8.4873L10.8233 7.7073L10.3546 9.52566L3.63172 5.34857L3.01003 4.96202L2.55504 4.67901L0.358531 3.31426ZM22.0784 24.1958C19.0955 26.657 16.0537 28.2013 15.8135 28.3216L15.5144 28.4853L15.4723 28.4636L15.331 28.3916V28.3906L15.2046 28.3265C14.9408 28.1953 11.9059 26.6521 8.9298 24.1958C5.94785 21.7325 3.01297 18.3561 3.01003 14.533V5.34166L3.46306 5.6227L3.63172 5.72821V6.09602V14.537C3.63172 21.8262 14.7898 27.5416 15.2653 27.7812L15.5213 27.9123L15.7586 27.7812C16.2195 27.5475 26.7843 22.1299 27.3559 15.1227L27.8256 15.3554L27.9276 15.4067C27.5236 18.8679 24.8319 21.9228 22.0784 24.1958ZM29.6083 15.8692C29.6073 15.8692 29.6073 15.8692 29.6064 15.8692C29.5956 15.8692 29.5789 15.8643 29.5789 15.8643L28.4081 15.2844L27.9668 15.0655L27.3716 14.7707L22.656 12.4346L22.1804 15.6483L16.3665 11.7375L15.5703 10.2623L18.1188 11.7108L18.464 11.9179C18.5101 11.9465 18.563 11.9643 18.618 11.9751C18.6562 11.986 18.6954 11.9938 18.7346 11.9938C18.7356 11.9938 18.7366 11.9938 18.7386 11.9938C18.8523 11.9938 18.9602 11.9475 19.0426 11.8686C19.0828 11.8351 19.119 11.7976 19.1465 11.7523L19.3318 11.4554L19.5093 11.1922L20.8517 12.3064L21.2783 9.47536L27.3804 14.039L29.6446 15.7321C29.6642 15.7449 29.6779 15.7666 29.6799 15.7923C29.6809 15.8337 29.6485 15.8682 29.6083 15.8692Z" fill="#8C85B6"/>
</svg>
