<svg width="19" height="19" viewBox="0 0 19 19" fill="none" xmlns="http://www.w3.org/2000/svg">
<path d="M1.19095 0.000515486C0.955145 0.000577431 0.724715 0.0709809 0.52912 0.202725C0.333525 0.334469 0.181654 0.521568 0.092922 0.740101C0.00418994 0.958634 -0.0173707 1.19867 0.0309964 1.42953C0.0793636 1.66038 0.195461 1.87156 0.364445 2.03607L7.82384 9.49745L0.364445 16.9588C0.250683 17.0681 0.159858 17.199 0.0972889 17.3438C0.0347201 17.4886 0.00166581 17.6444 6.13556e-05 17.8021C-0.0015431 17.9599 0.0283348 18.1164 0.0879452 18.2624C0.147556 18.4085 0.2357 18.5411 0.347217 18.6527C0.458733 18.7642 0.59138 18.8524 0.737388 18.912C0.883397 18.9717 1.03983 19.0015 1.19753 18.9999C1.35523 18.9983 1.51103 18.9653 1.65579 18.9027C1.80056 18.8401 1.93138 18.7492 2.04061 18.6355L9.5 11.1741L16.9594 18.6355C17.0686 18.7492 17.1994 18.8401 17.3442 18.9027C17.489 18.9653 17.6448 18.9983 17.8025 18.9999C17.9602 19.0015 18.1166 18.9717 18.2626 18.912C18.4086 18.8524 18.5413 18.7642 18.6528 18.6527C18.7643 18.5411 18.8524 18.4085 18.9121 18.2624C18.9717 18.1164 19.0015 17.9599 18.9999 17.8021C18.9983 17.6444 18.9653 17.4886 18.9027 17.3438C18.8401 17.199 18.7493 17.0681 18.6355 16.9588L11.1762 9.49745L18.6355 2.03607C18.8068 1.86953 18.9238 1.65511 18.9712 1.42092C19.0186 1.18672 18.9941 0.94368 18.901 0.723637C18.8079 0.503594 18.6505 0.316815 18.4495 0.18778C18.2484 0.0587448 18.0131 -0.00652782 17.7743 0.000515486C17.4664 0.00969392 17.1741 0.138433 16.9594 0.359459L9.5 7.82084L2.04061 0.359459C1.93015 0.245878 1.79804 0.155595 1.65211 0.0939443C1.50618 0.0322933 1.34937 0.000524723 1.19095 0.000515486Z" fill="#605D6A"/>
</svg>
