<svg width="16" height="10" viewBox="0 0 16 10" fill="none" xmlns="http://www.w3.org/2000/svg">
<path d="M2.26278 9H0.285511L3.2983 0.272727H5.67614L8.68466 9H6.70739L4.52131 2.26705H4.45312L2.26278 9ZM2.1392 5.5696H6.80966V7.00994H2.1392V5.5696ZM11.5675 9.12358C11.1499 9.12358 10.7777 9.05114 10.451 8.90625C10.1243 8.75852 9.86577 8.54119 9.67543 8.25426C9.48793 7.96449 9.39418 7.60369 9.39418 7.17188C9.39418 6.80824 9.46094 6.50284 9.59446 6.25568C9.72798 6.00852 9.9098 5.80966 10.1399 5.65909C10.37 5.50852 10.6314 5.39489 10.924 5.31818C11.2195 5.24148 11.5291 5.1875 11.853 5.15625C12.2337 5.11648 12.5405 5.07955 12.7734 5.04545C13.0064 5.00852 13.1754 4.95455 13.2805 4.88352C13.3857 4.8125 13.4382 4.70739 13.4382 4.56818V4.54261C13.4382 4.27273 13.353 4.06392 13.1825 3.91619C13.0149 3.76847 12.7763 3.6946 12.4666 3.6946C12.1399 3.6946 11.88 3.76705 11.6868 3.91193C11.4936 4.05398 11.3658 4.23295 11.3033 4.44886L9.62429 4.3125C9.70952 3.91477 9.87713 3.57102 10.1271 3.28125C10.3771 2.98864 10.6996 2.7642 11.0945 2.60795C11.4922 2.44886 11.9524 2.36932 12.4751 2.36932C12.8388 2.36932 13.1868 2.41193 13.5192 2.49716C13.8544 2.58239 14.1513 2.71449 14.4098 2.89347C14.6712 3.07244 14.8771 3.30256 15.0277 3.58381C15.1783 3.86222 15.2536 4.19602 15.2536 4.58523V9H13.532V8.09233H13.4808C13.3757 8.29688 13.2351 8.47727 13.0589 8.63352C12.8828 8.78693 12.6712 8.90767 12.424 8.99574C12.1768 9.08097 11.8913 9.12358 11.5675 9.12358ZM12.0874 7.87074C12.3544 7.87074 12.5902 7.81818 12.7947 7.71307C12.9993 7.60511 13.1598 7.46023 13.2763 7.27841C13.3928 7.09659 13.451 6.89062 13.451 6.66051V5.96591C13.3942 6.00284 13.3161 6.03693 13.2166 6.06818C13.12 6.09659 13.0107 6.12358 12.8885 6.14915C12.7663 6.17187 12.6442 6.19318 12.522 6.21307C12.3999 6.23011 12.2891 6.24574 12.1896 6.25994C11.9766 6.29119 11.7905 6.34091 11.6314 6.40909C11.4723 6.47727 11.3487 6.5696 11.2607 6.68608C11.1726 6.79972 11.1286 6.94176 11.1286 7.11222C11.1286 7.35938 11.218 7.5483 11.397 7.67898C11.5788 7.80682 11.8089 7.87074 12.0874 7.87074Z" fill="#8C85B6"/>
</svg>
