<svg width="15" height="15" viewBox="0 0 15 15" fill="none" xmlns="http://www.w3.org/2000/svg">
<path d="M0.75 10.5C0.551088 10.5 0.360322 10.421 0.21967 10.2803C0.0790176 10.1397 0 9.94891 0 9.75V6C0 4.4087 0.632141 2.88258 1.75736 1.75736C2.88258 0.632141 4.4087 0 6 0H9.75C9.94891 0 10.1397 0.0790176 10.2803 0.21967C10.421 0.360322 10.5 0.551088 10.5 0.75V1.125C10.5 1.22446 10.4605 1.31984 10.3902 1.39016C10.3198 1.46049 10.2245 1.5 10.125 1.5H6C4.80653 1.5 3.66193 1.97411 2.81802 2.81802C1.97411 3.66193 1.5 4.80653 1.5 6V10.125C1.5 10.2245 1.46049 10.3198 1.39016 10.3902C1.31984 10.4605 1.22446 10.5 1.125 10.5H0.75Z" fill="#B5BAC1"/>
<path d="M3 12C3 12.7956 3.31607 13.5587 3.87868 14.1213C4.44129 14.6839 5.20435 15 6 15H12C12.7956 15 13.5587 14.6839 14.1213 14.1213C14.6839 13.5587 15 12.7956 15 12V9H12.75C11.7554 9 10.8016 8.60491 10.0983 7.90165C9.39509 7.19839 9 6.24456 9 5.25V3H6C5.20435 3 4.44129 3.31607 3.87868 3.87868C3.31607 4.44129 3 5.20435 3 6V12Z" fill="#B5BAC1"/>
<path d="M14.7975 7.50001C14.6881 7.25494 14.5357 7.03141 14.3475 6.84001L11.16 3.66001C10.9692 3.46917 10.7457 3.3142 10.5 3.20251V5.25001C10.5 5.54549 10.5582 5.83807 10.6713 6.11105C10.7843 6.38403 10.9501 6.63207 11.159 6.84101C11.3679 7.04994 11.616 7.21567 11.889 7.32874C12.1619 7.44182 12.4545 7.50001 12.75 7.50001H14.7975Z" fill="#B5BAC1"/>
</svg>
