<svg width="128" height="119" viewBox="0 0 128 119" fill="none" xmlns="http://www.w3.org/2000/svg">
<path d="M63.7721 0L32.3281 43.032L40.5961 53.736L63.7721 22.292L87.4281 53.736L95.6721 43.032L63.7721 0Z" fill="url(#paint0_linear_1558_72)" fill-opacity="0.8"/>
<path d="M17.396 31.6602H0L63.772 118.636L128 31.6602H110.176L63.772 94.1202L17.396 31.6602Z" fill="url(#paint1_linear_1558_72)" fill-opacity="0.8"/>
<path d="M63.7722 46.6162L55.0762 57.5362L63.7722 69.1242L72.2562 58.2042L63.7722 46.6162Z" fill="url(#paint2_linear_1558_72)" fill-opacity="0.8"/>
<path d="M16.9399 63.3438L25.6359 75.8158L17.6079 85.6358H1.33594L16.9399 63.3438Z" fill="url(#paint3_linear_1558_72)" fill-opacity="0.8"/>
<path d="M30.3201 83.1719L37.9201 93.4479L30.9881 102.144H15.6001L30.3201 83.1719Z" fill="url(#paint4_linear_1558_72)" fill-opacity="0.8"/>
<path d="M96.3398 83.1719L89.1958 92.9919L96.1278 101.476H110.604L96.3398 83.1719Z" fill="url(#paint5_linear_1558_72)" fill-opacity="0.8"/>
<path d="M103.488 74.4757L111.276 64.0117L126.664 85.6357L111.944 84.9677L103.488 74.4757Z" fill="url(#paint6_linear_1558_72)" fill-opacity="0.8"/>
<path d="M111.276 15.6006L97.2282 34.5726L89.8682 25.4206L97.2282 15.6006H111.276Z" fill="url(#paint7_linear_1558_72)" fill-opacity="0.8"/>
<path d="M30.3201 15.6007L37.9201 25.4207L30.3201 35.2407L15.6001 15.5967L30.3201 15.6007Z" fill="url(#paint8_linear_1558_72)" fill-opacity="0.8"/>
<defs>
<linearGradient id="paint0_linear_1558_72" x1="64.0001" y1="0" x2="64.0001" y2="53.736" gradientUnits="userSpaceOnUse">
<stop stop-color="#5F2CC7"/>
<stop offset="1" stop-color="#5D4ECA"/>
</linearGradient>
<linearGradient id="paint1_linear_1558_72" x1="64" y1="31.6602" x2="64" y2="118.636" gradientUnits="userSpaceOnUse">
<stop stop-color="#5F2CC7"/>
<stop offset="1" stop-color="#5D4ECA"/>
</linearGradient>
<linearGradient id="paint2_linear_1558_72" x1="63.6662" y1="46.6162" x2="63.6662" y2="69.1242" gradientUnits="userSpaceOnUse">
<stop stop-color="#5F2CC7"/>
<stop offset="1" stop-color="#5D4ECA"/>
</linearGradient>
<linearGradient id="paint3_linear_1558_72" x1="13.4859" y1="63.3438" x2="13.4859" y2="85.6358" gradientUnits="userSpaceOnUse">
<stop stop-color="#5F2CC7"/>
<stop offset="1" stop-color="#5D4ECA"/>
</linearGradient>
<linearGradient id="paint4_linear_1558_72" x1="26.7601" y1="83.1719" x2="26.7601" y2="102.144" gradientUnits="userSpaceOnUse">
<stop stop-color="#5F2CC7"/>
<stop offset="1" stop-color="#5D4ECA"/>
</linearGradient>
<linearGradient id="paint5_linear_1558_72" x1="99.8998" y1="83.1719" x2="99.8998" y2="101.476" gradientUnits="userSpaceOnUse">
<stop stop-color="#5F2CC7"/>
<stop offset="1" stop-color="#5D4ECA"/>
</linearGradient>
<linearGradient id="paint6_linear_1558_72" x1="115.076" y1="64.0117" x2="115.076" y2="85.6357" gradientUnits="userSpaceOnUse">
<stop stop-color="#5F2CC7"/>
<stop offset="1" stop-color="#5D4ECA"/>
</linearGradient>
<linearGradient id="paint7_linear_1558_72" x1="100.572" y1="15.6006" x2="100.572" y2="34.5726" gradientUnits="userSpaceOnUse">
<stop stop-color="#5F2CC7"/>
<stop offset="1" stop-color="#5D4ECA"/>
</linearGradient>
<linearGradient id="paint8_linear_1558_72" x1="26.7601" y1="15.5967" x2="26.7601" y2="35.2407" gradientUnits="userSpaceOnUse">
<stop stop-color="#5F2CC7"/>
<stop offset="1" stop-color="#5D4ECA"/>
</linearGradient>
</defs>
</svg>
