<svg width="17" height="17" viewBox="0 0 17 17" fill="none" xmlns="http://www.w3.org/2000/svg">
<path d="M8.25 0C8.4688 0 8.67865 0.0869194 8.83336 0.241637C8.98808 0.396354 9.075 0.606196 9.075 0.825V9.56175L11.7975 6.83925C11.8721 6.75346 11.9636 6.684 12.0663 6.63524C12.169 6.58649 12.2806 6.55948 12.3943 6.55591C12.5079 6.55235 12.621 6.57231 12.7266 6.61454C12.8321 6.65676 12.9278 6.72035 13.0076 6.8013C13.0874 6.88225 13.1496 6.97882 13.1904 7.08496C13.2311 7.19109 13.2494 7.3045 13.2443 7.41806C13.2391 7.53163 13.2105 7.64289 13.1603 7.74489C13.1101 7.84688 13.0393 7.93739 12.9525 8.01075L8.8275 12.1357C8.67328 12.2869 8.46595 12.3716 8.25 12.3716C8.03405 12.3716 7.82672 12.2869 7.6725 12.1357L3.5475 8.01075C3.46066 7.93739 3.38991 7.84688 3.3397 7.74489C3.28949 7.64289 3.2609 7.53163 3.25573 7.41806C3.25055 7.3045 3.26891 7.19109 3.30963 7.08496C3.35036 6.97882 3.41258 6.88225 3.49239 6.8013C3.5722 6.72035 3.66788 6.65676 3.77343 6.61454C3.87898 6.57231 3.99211 6.55235 4.10574 6.55591C4.21936 6.55948 4.33102 6.58649 4.43372 6.63524C4.53641 6.684 4.62792 6.75346 4.7025 6.83925L7.425 9.56175V0.825C7.425 0.606196 7.51192 0.396354 7.66664 0.241637C7.82135 0.0869194 8.0312 0 8.25 0ZM0.825 14.85C0.606196 14.85 0.396354 14.9369 0.241637 15.0916C0.0869194 15.2464 0 15.4562 0 15.675C0 15.8938 0.0869194 16.1036 0.241637 16.2584C0.396354 16.4131 0.606196 16.5 0.825 16.5H15.675C15.8938 16.5 16.1036 16.4131 16.2584 16.2584C16.4131 16.1036 16.5 15.8938 16.5 15.675C16.5 15.4562 16.4131 15.2464 16.2584 15.0916C16.1036 14.9369 15.8938 14.85 15.675 14.85H0.825Z" fill="#B5BAC1"/>
</svg>
