<svg width="4" height="4" viewBox="0 0 4 4" fill="none" xmlns="http://www.w3.org/2000/svg">
<path d="M3.93643 1.10746C3.97718 1.14693 4 1.19999 4 1.25526C4 1.31052 3.97718 1.36358 3.93643 1.40305L2.82444 2.45872C2.78161 2.48921 2.72864 2.50402 2.67524 2.50042C2.62184 2.49681 2.5716 2.47505 2.53374 2.43911C2.49589 2.40317 2.47296 2.35548 2.46917 2.30478C2.46537 2.25409 2.48097 2.20379 2.51309 2.16313L3.24255 1.46639H2.00157C1.58869 1.46639 1.19272 1.6221 0.900764 1.89927C0.608811 2.17644 0.444794 2.55236 0.444794 2.94433V3.78887C0.444794 3.84486 0.421363 3.89857 0.379655 3.93816C0.337948 3.97776 0.28138 4 0.222397 4C0.163414 4 0.106846 3.97776 0.0651386 3.93816C0.0234311 3.89857 0 3.84486 0 3.78887V2.94433C0 2.44036 0.210879 1.95704 0.586247 1.60068C0.961615 1.24432 1.47072 1.04412 2.00157 1.04412H3.24477L2.51086 0.34738C2.47471 0.306747 2.45604 0.254657 2.45859 0.201523C2.46114 0.14839 2.48472 0.0981274 2.52462 0.0607848C2.56451 0.0234423 2.61779 0.00177113 2.67379 0.000103851C2.72978 -0.00156343 2.78438 0.016896 2.82667 0.0517918L3.93865 1.10746H3.93643Z" fill="#49B5DD"/>
</svg>
