<svg width="4" height="4" viewBox="0 0 4 4" fill="none" xmlns="http://www.w3.org/2000/svg">
<path d="M2.867 2.55811C2.82927 2.52016 2.80809 2.46882 2.80809 2.4153C2.80809 2.36178 2.82927 2.31044 2.867 2.27249L3.37545 1.76403C3.51792 1.61131 3.59557 1.40926 3.59203 1.20043C3.5885 0.991607 3.50407 0.7923 3.35652 0.644484C3.20896 0.496669 3.00981 0.411881 2.80098 0.407977C2.59216 0.404074 2.38998 0.481358 2.237 0.623555L1.72652 1.13201C1.68777 1.1652 1.63792 1.18254 1.58694 1.18057C1.53596 1.1786 1.4876 1.15746 1.45152 1.12139C1.41544 1.08531 1.39431 1.03695 1.39234 0.985966C1.39037 0.934984 1.40771 0.885136 1.4409 0.846384L1.95138 0.335904C2.18027 0.117002 2.4858 -0.00354799 2.8025 7.95583e-05C3.1192 0.00370711 3.42188 0.131224 3.6457 0.355311C3.86952 0.579398 3.99668 0.882232 3.99994 1.19894C4.00319 1.51564 3.88228 1.82102 3.66311 2.04966L3.15263 2.55811C3.11467 2.59584 3.06333 2.61702 3.00981 2.61702C2.9563 2.61702 2.90495 2.59584 2.867 2.55811ZM1.11678 1.45815C1.15451 1.4961 1.17569 1.54745 1.17569 1.60096C1.17569 1.65448 1.15451 1.70582 1.11678 1.74378L0.606302 2.25223C0.455065 2.40347 0.370101 2.60859 0.370101 2.82247C0.370101 3.03635 0.455065 3.24147 0.606302 3.39271C0.757539 3.54394 0.96266 3.62891 1.17654 3.62891C1.39042 3.62891 1.59554 3.54394 1.74678 3.39271L2.25523 2.88223C2.29338 2.84408 2.34511 2.82265 2.39906 2.82265C2.453 2.82265 2.50474 2.84408 2.54289 2.88223C2.58103 2.92037 2.60246 2.97211 2.60246 3.02605C2.60246 3.08 2.58103 3.13173 2.54289 3.16988L2.03241 3.67833C1.80245 3.8903 1.49942 4.00512 1.18674 3.99876C0.874056 3.9924 0.57595 3.86535 0.354805 3.6442C0.133659 3.42306 0.00661194 3.12495 0.000250871 2.81227C-0.00611019 2.49959 0.108707 2.19656 0.320676 1.9666L0.829131 1.45815C0.847962 1.43916 0.870367 1.42409 0.895052 1.41381C0.919737 1.40352 0.946214 1.39823 0.972956 1.39823C0.999698 1.39823 1.02618 1.40352 1.05086 1.41381C1.07555 1.42409 1.09795 1.43916 1.11678 1.45815Z" fill="#49B5DD"/>
<path d="M2.53917 1.74367C2.56843 1.70466 2.58263 1.65641 2.57918 1.60777C2.57572 1.55913 2.55483 1.51337 2.52035 1.47889C2.48588 1.44441 2.44011 1.42352 2.39148 1.42007C2.34284 1.41661 2.29458 1.43081 2.25557 1.46007L1.44529 2.27036C1.42207 2.28777 1.40286 2.30997 1.38897 2.33545C1.37508 2.36093 1.36682 2.3891 1.36477 2.41805C1.36271 2.447 1.3669 2.47606 1.37705 2.50325C1.38719 2.53044 1.40307 2.55513 1.42359 2.57565C1.44411 2.59618 1.4688 2.61205 1.496 2.6222C1.52319 2.63235 1.55224 2.63653 1.58119 2.63448C1.61014 2.63242 1.63831 2.62416 1.66379 2.61027C1.68927 2.59638 1.71147 2.57717 1.72889 2.55396L2.53917 1.74367Z" fill="#49B5DD"/>
</svg>
