<svg width="15" height="15" viewBox="0 0 15 15" fill="none" xmlns="http://www.w3.org/2000/svg">
<path d="M10.7512 9.59292C10.6098 9.45059 10.5303 9.25806 10.5303 9.05737C10.5303 8.85669 10.6098 8.66415 10.7512 8.52183L12.658 6.61512C13.1922 6.04242 13.4834 5.28473 13.4701 4.50163C13.4569 3.71853 13.1403 2.97112 12.5869 2.41682C12.0336 1.86251 11.2868 1.54455 10.5037 1.52991C9.72061 1.51528 8.96241 1.80509 8.38876 2.33833L6.47446 4.24504C6.32914 4.36948 6.14221 4.43452 5.95102 4.42713C5.75984 4.41975 5.57848 4.34049 5.44319 4.2052C5.30791 4.06991 5.22865 3.88856 5.22127 3.69737C5.21388 3.50619 5.27891 3.31926 5.40336 3.17394L7.31766 1.25964C8.17602 0.438758 9.32174 -0.013305 10.5094 0.000298344C11.697 0.0139017 12.832 0.492089 13.6714 1.33242C14.5107 2.17274 14.9876 3.30837 14.9998 4.49601C15.012 5.68364 14.5585 6.82883 13.7366 7.68622L11.8223 9.59292C11.68 9.73441 11.4875 9.81382 11.2868 9.81382C11.0861 9.81382 10.8936 9.73441 10.7512 9.59292ZM4.18793 5.46806C4.32942 5.61039 4.40883 5.80292 4.40883 6.00361C4.40883 6.2043 4.32942 6.39683 4.18793 6.53916L2.27363 8.44586C1.70649 9.013 1.38788 9.7822 1.38788 10.5843C1.38788 11.3863 1.70649 12.1555 2.27363 12.7227C2.84077 13.2898 3.60997 13.6084 4.41203 13.6084C5.21408 13.6084 5.98328 13.2898 6.55042 12.7227L8.45713 10.8084C8.60017 10.6653 8.79418 10.5849 8.99647 10.5849C9.19877 10.5849 9.39278 10.6653 9.53582 10.8084C9.67886 10.9514 9.75922 11.1454 9.75922 11.3477C9.75922 11.55 9.67886 11.744 9.53582 11.887L7.62152 13.7937C6.75918 14.5886 5.62283 15.0192 4.45027 14.9953C3.27771 14.9715 2.15981 14.4951 1.33052 13.6658C0.50122 12.8365 0.0247948 11.7186 0.000940766 10.546C-0.0229132 9.37345 0.407653 8.2371 1.20254 7.37476L3.10924 5.46806C3.17986 5.39686 3.26388 5.34035 3.35645 5.30178C3.44901 5.26322 3.5483 5.24336 3.64859 5.24336C3.74887 5.24336 3.84816 5.26322 3.94073 5.30178C4.0333 5.34035 4.11731 5.39686 4.18793 5.46806Z" fill="#B5BAC1"/>
<path d="M9.52116 6.53879C9.63088 6.39251 9.68414 6.21156 9.67118 6.02916C9.65822 5.84676 9.5799 5.67516 9.4506 5.54586C9.3213 5.41656 9.1497 5.33824 8.9673 5.32528C8.7849 5.31231 8.60395 5.36558 8.45766 5.47529L5.41909 8.51387C5.33202 8.57917 5.26 8.66242 5.20791 8.75797C5.15581 8.85353 5.12486 8.95917 5.11715 9.06773C5.10943 9.17629 5.12513 9.28524 5.16319 9.38721C5.20125 9.48917 5.26077 9.58177 5.33773 9.65873C5.41469 9.73569 5.50728 9.79521 5.60925 9.83327C5.71121 9.87132 5.82017 9.88703 5.92873 9.87931C6.03729 9.8716 6.14293 9.84064 6.23848 9.78855C6.33404 9.73645 6.41729 9.66443 6.48259 9.57737L9.52116 6.53879Z" fill="#B5BAC1"/>
</svg>
