<svg width="18" height="18" viewBox="0 0 18 18" fill="none" xmlns="http://www.w3.org/2000/svg">
<path fill-rule="evenodd" clip-rule="evenodd" d="M12.5289 13.7373C10.989 14.9683 9.03614 15.563 7.07146 15.399C5.10678 15.2351 3.27948 14.325 1.96489 12.8557C0.65031 11.3865 -0.0517333 9.46959 0.00297292 7.49884C0.0576791 5.5281 0.864981 3.65311 2.25905 2.25905C3.65311 0.864981 5.5281 0.0576791 7.49884 0.00297292C9.46959 -0.0517333 11.3865 0.65031 12.8557 1.96489C14.325 3.27948 15.2351 5.10678 15.399 7.07146C15.563 9.03614 14.9683 10.989 13.7373 12.5289L17.748 16.5311C17.8279 16.611 17.8913 16.7058 17.9345 16.8102C17.9777 16.9146 18 17.0265 18 17.1395C18 17.2525 17.9777 17.3644 17.9345 17.4688C17.8913 17.5732 17.8279 17.6681 17.748 17.748C17.6681 17.8279 17.5732 17.8913 17.4688 17.9345C17.3644 17.9777 17.2525 18 17.1395 18C17.0265 18 16.9146 17.9777 16.8102 17.9345C16.7058 17.8913 16.611 17.8279 16.5311 17.748L12.5289 13.7373ZM13.7116 7.71268C13.7116 8.50047 13.5564 9.28054 13.2549 10.0084C12.9535 10.7362 12.5116 11.3975 11.9545 11.9545C11.3975 12.5116 10.7362 12.9535 10.0084 13.2549C9.28054 13.5564 8.50047 13.7116 7.71268 13.7116C6.9249 13.7116 6.14483 13.5564 5.41701 13.2549C4.68919 12.9535 4.02787 12.5116 3.47083 11.9545C2.91378 11.3975 2.4719 10.7362 2.17043 10.0084C1.86896 9.28054 1.71379 8.50047 1.71379 7.71268C1.71379 6.12168 2.34582 4.59584 3.47083 3.47083C4.59584 2.34582 6.12168 1.71379 7.71268 1.71379C9.30369 1.71379 10.8295 2.34582 11.9545 3.47083C13.0795 4.59584 13.7116 6.12168 13.7116 7.71268Z" fill="#B5BAC1"/>
<path d="M8.57008 5.1419C8.57008 4.91461 8.47979 4.69663 8.31907 4.53592C8.15836 4.3752 7.94038 4.28491 7.71309 4.28491C7.48581 4.28491 7.26783 4.3752 7.10711 4.53592C6.9464 4.69663 6.85611 4.91461 6.85611 5.1419V6.85586H5.14214C4.91485 6.85586 4.69688 6.94615 4.53616 7.10687C4.37545 7.26759 4.28516 7.48556 4.28516 7.71285C4.28516 7.94014 4.37545 8.15811 4.53616 8.31883C4.69688 8.47954 4.91485 8.56983 5.14214 8.56983H6.85611V10.2838C6.85611 10.5111 6.9464 10.7291 7.10711 10.8898C7.26783 11.0505 7.48581 11.1408 7.71309 11.1408C7.94038 11.1408 8.15836 11.0505 8.31907 10.8898C8.47979 10.7291 8.57008 10.5111 8.57008 10.2838V8.56983H10.284C10.5113 8.56983 10.7293 8.47954 10.89 8.31883C11.0507 8.15811 11.141 7.94014 11.141 7.71285C11.141 7.48556 11.0507 7.26759 10.89 7.10687C10.7293 6.94615 10.5113 6.85586 10.284 6.85586H8.57008V5.1419Z" fill="#B5BAC1"/>
</svg>
