<svg width="15" height="15" viewBox="0 0 15 15" fill="none" xmlns="http://www.w3.org/2000/svg">
<path d="M9.28614 0.714285C9.28614 0.524845 9.36139 0.343164 9.49534 0.209209C9.62929 0.0752548 9.81096 0 10.0004 0H14.2859C14.4753 0 14.657 0.0752548 14.791 0.209209C14.9249 0.343164 15.0002 0.524845 15.0002 0.714285V5C15.0002 5.18944 14.9249 5.37112 14.791 5.50507C14.657 5.63903 14.4753 5.71428 14.2859 5.71428C14.0965 5.71428 13.9148 5.63903 13.7809 5.50507C13.6469 5.37112 13.5717 5.18944 13.5717 5V2.43571L10.5004 5.50714C10.4358 5.58142 10.3566 5.64155 10.2677 5.68377C10.1788 5.72598 10.0821 5.74936 9.98371 5.75245C9.88534 5.75554 9.78739 5.73826 9.69601 5.7017C9.60464 5.66514 9.5218 5.61009 9.4527 5.54C9.3836 5.46991 9.32973 5.3863 9.29448 5.2944C9.25922 5.20251 9.24333 5.10432 9.24781 5.006C9.25229 4.90768 9.27704 4.81134 9.32051 4.72304C9.36398 4.63473 9.42523 4.55637 9.50041 4.49285L12.5574 1.42857H10.0004C9.81096 1.42857 9.62929 1.35332 9.49534 1.21936C9.36139 1.08541 9.28614 0.903725 9.28614 0.714285Z" fill="#B5BAC1"/>
<path d="M2.14276 0.714233C1.57446 0.714233 1.02944 0.939998 0.627599 1.34186C0.225754 1.74372 0 2.28877 0 2.85709V12.8571C0 13.4254 0.225754 13.9704 0.627599 14.3723C1.02944 14.7742 1.57446 14.9999 2.14276 14.9999H12.1423C12.7106 14.9999 13.2556 14.7742 13.6575 14.3723C14.0593 13.9704 14.2851 13.4254 14.2851 12.8571V8.57137C14.2851 8.38193 14.2098 8.20025 14.0759 8.06629C13.9419 7.93234 13.7602 7.85708 13.5708 7.85708C13.3814 7.85708 13.1997 7.93234 13.0657 8.06629C12.9318 8.20025 12.8565 8.38193 12.8565 8.57137V12.8571C12.8565 13.0465 12.7813 13.2282 12.6473 13.3622C12.5134 13.4961 12.3317 13.5714 12.1423 13.5714H2.14276C1.95333 13.5714 1.77165 13.4961 1.6377 13.3622C1.50376 13.2282 1.42851 13.0465 1.42851 12.8571V2.85709C1.42851 2.66765 1.50376 2.48597 1.6377 2.35201C1.77165 2.21806 1.95333 2.1428 2.14276 2.1428H6.42827C6.6177 2.1428 6.79938 2.06755 6.93333 1.93359C7.06727 1.79964 7.14253 1.61796 7.14253 1.42852C7.14253 1.23908 7.06727 1.0574 6.93333 0.923443C6.79938 0.789488 6.6177 0.714233 6.42827 0.714233H2.14276Z" fill="#B5BAC1"/>
</svg>
