<svg width="25" height="27" viewBox="0 0 25 27" fill="none" xmlns="http://www.w3.org/2000/svg">
<path d="M22.4361 15.04C21.9682 14.687 21.6886 14.12 21.6886 13.5226C21.6886 12.9252 21.9682 12.3582 22.4355 12.0058L24.5974 10.3756C24.942 10.1151 25.0844 9.65675 24.9499 9.23892C24.3933 7.51897 23.5132 5.95023 22.3331 4.57521C22.0489 4.2458 21.5908 4.14185 21.1989 4.31871L18.7646 5.41966C18.2343 5.65997 17.6167 5.62554 17.1133 5.32651C16.6106 5.02815 16.2732 4.49624 16.2096 3.90289L15.9168 1.15422C15.8702 0.716807 15.5539 0.360397 15.1351 0.27197C13.4307 -0.0864653 11.6396 -0.0925403 9.90489 0.26522C9.48352 0.352297 9.16652 0.708707 9.11992 1.14814L8.82982 3.87927C8.76616 4.47328 8.42881 5.0052 7.92475 5.30356C7.422 5.60192 6.80637 5.63769 6.27409 5.39671L3.82665 4.28968C3.4381 4.11282 2.97868 4.21543 2.69449 4.54416C1.51047 5.91377 0.626403 7.48049 0.0639318 9.19909C-0.072584 9.61625 0.0691823 10.0773 0.415066 10.3385L2.56322 11.9586C3.03184 12.3123 3.31143 12.8793 3.31143 13.4767C3.31143 14.0741 3.03184 14.6411 2.56453 14.9934L0.402596 16.6236C0.0580247 16.8842 -0.0843978 17.3425 0.050149 17.7603C0.606714 19.4803 1.48685 21.049 2.66692 22.4241C2.95111 22.7541 3.41054 22.8588 3.80105 22.6806L6.23537 21.5796C6.76568 21.3393 7.38262 21.3737 7.88668 21.6728C8.38943 21.9711 8.72678 22.503 8.79044 23.0964L9.08317 25.845C9.12976 26.2825 9.44611 26.6389 9.86485 26.7273C10.7273 26.9082 11.6133 27 12.5 27C13.365 27 14.2379 26.9102 15.0945 26.7334C15.5158 26.6463 15.8328 26.2899 15.8794 25.8504L16.1702 23.1193C16.2338 22.5253 16.5712 21.9934 17.0752 21.695C17.578 21.3973 18.1943 21.3622 18.7259 21.6019L21.1733 22.7089C21.5632 22.8864 22.0213 22.7838 22.3055 22.4544C23.4895 21.0848 24.3736 19.5181 24.9361 17.7995C25.0726 17.3823 24.9308 16.9213 24.5849 16.6601L22.4361 15.04ZM12.5 18.2248C9.96264 18.2248 7.90572 16.1093 7.90572 13.4996C7.90572 10.89 9.96264 8.7745 12.5 8.7745C15.0374 8.7745 17.0943 10.89 17.0943 13.4996C17.0943 16.1093 15.0374 18.2248 12.5 18.2248Z" fill="#8C85B6"/>
</svg>
